<svg xmlns="http://www.w3.org/2000/svg" viewBox="0 0 1200 630" width="1200" height="630">
  <defs>
    <linearGradient id="bg" x1="0" y1="0" x2="1" y2="1">
      <stop offset="0" stop-color="#1a0b2e"/>
      <stop offset="0.55" stop-color="#3b0f66"/>
      <stop offset="1" stop-color="#aa3bff"/>
    </linearGradient>
    <linearGradient id="paper" x1="0" y1="0" x2="0" y2="1">
      <stop offset="0" stop-color="#ffffff"/>
      <stop offset="1" stop-color="#f4ecff"/>
    </linearGradient>
    <linearGradient id="seal" x1="0" y1="0" x2="0" y2="1">
      <stop offset="0" stop-color="#fcd34d"/>
      <stop offset="1" stop-color="#f59e0b"/>
    </linearGradient>
  </defs>

  <rect width="1200" height="630" fill="url(#bg)"/>

  <circle cx="1080" cy="90" r="200" fill="#aa3bff" opacity="0.28"/>
  <circle cx="90" cy="560" r="230" fill="#7c2dff" opacity="0.22"/>
  <circle cx="600" cy="620" r="150" fill="#ffffff" opacity="0.06"/>

  <!-- certificate icon -->
  <g transform="translate(210, 170) scale(3.8)">
    <path d="M20 8 L27 26 L32 12 Z" fill="#c084fc"/>
    <path d="M44 8 L37 26 L32 12 Z" fill="#a855f7"/>
    <rect x="28" y="6" width="8" height="8" rx="2" fill="#a855f7"/>
    <rect x="13" y="8" width="38" height="48" rx="4" fill="url(#paper)" stroke="#aa3bff" stroke-width="2.5"/>
    <rect x="18" y="13" width="28" height="38" rx="2" fill="none" stroke="#d8c4ff" stroke-width="1.5" stroke-dasharray="3 2"/>
    <circle cx="32" cy="35" r="10.5" fill="url(#seal)" stroke="#b45309" stroke-width="2"/>
    <circle cx="32" cy="35" r="7.5" fill="none" stroke="#fff3c4" stroke-width="1.2"/>
    <path d="M27.2 35.4 l3.4 3.4 6.6-7.4" fill="none" stroke="#7c3aed" stroke-width="2.6" stroke-linecap="round" stroke-linejoin="round"/>
  </g>

  <text x="620" y="320" font-family="Georgia, 'Times New Roman', serif" font-size="104" font-weight="700" fill="#ffffff">CertiGen</text>
  <text x="620" y="392" font-family="Arial, Helvetica, sans-serif" font-size="36" font-weight="600" fill="#e9d9ff">Bulk Certificate Generator</text>
  <text x="620" y="446" font-family="Arial, Helvetica, sans-serif" font-size="26" fill="#cbb2f2">Upload a template · Import names · Download certificates</text>
</svg>